<?xml version="1.0" encoding="UTF-8"?>
<svg width="496px" height="496px" viewBox="0 0 496 496" version="1.1" xmlns="http://www.w3.org/2000/svg" xmlns:xlink="http://www.w3.org/1999/xlink">
    <!-- Generator: Sketch 48.2 (47327) - http://www.bohemiancoding.com/sketch -->
    <title>arrow-brand-font-dark</title>
    <desc>Created with Sketch.</desc>
    <defs>
        <linearGradient x1="50%" y1="0%" x2="50%" y2="100%" id="linearGradient-1">
            <stop stop-color="#F99409" offset="0%"></stop>
            <stop stop-color="#E37A73" offset="100%"></stop>
        </linearGradient>
        <linearGradient x1="50%" y1="0%" x2="50%" y2="100%" id="linearGradient-2">
            <stop stop-color="#05CDFF" offset="0%"></stop>
            <stop stop-color="#6A8EFF" offset="100%"></stop>
        </linearGradient>
        <path d="M126,194.5048 L126,0.517556275 L126.008286,0.5 L252,267.5 L126.008286,194.5 Z" id="path-3"></path>
        <filter x="-2.4%" y="-1.1%" width="104.8%" height="104.5%" filterUnits="objectBoundingBox" id="filter-4">
            <feOffset dx="0" dy="6" in="SourceAlpha" result="shadowOffsetOuter1"></feOffset>
            <feColorMatrix values="0 0 0 0 0.0549019608   0 0 0 0 0.145098039   0 0 0 0 0.317647059  0 0 0 0.11 0" type="matrix" in="shadowOffsetOuter1"></feColorMatrix>
        </filter>
        <linearGradient x1="50%" y1="0%" x2="50%" y2="100%" id="linearGradient-5">
            <stop stop-color="#00B5E2" offset="0%"></stop>
            <stop stop-color="#4D72E5" offset="100%"></stop>
        </linearGradient>
        <path d="M0,194.504767 L0,0.50480003 L126,267 L0.00828552836,194.5 Z" id="path-6"></path>
        <filter x="-2.4%" y="-1.1%" width="104.8%" height="104.5%" filterUnits="objectBoundingBox" id="filter-7">
            <feOffset dx="0" dy="6" in="SourceAlpha" result="shadowOffsetOuter1"></feOffset>
            <feColorMatrix values="0 0 0 0 0.0549019608   0 0 0 0 0.145098039   0 0 0 0 0.317647059  0 0 0 0.11 0" type="matrix" in="shadowOffsetOuter1"></feColorMatrix>
        </filter>
    </defs>
    <g id="Page-1" stroke="none" stroke-width="1" fill="none" fill-rule="evenodd">
        <g id="arrow-brand-font-dark">
            <rect id="background" fill="#1A3F88" x="0" y="0" width="496" height="496"></rect>
            <path d="M121.951999,413 L131.695999,381.608 L138.271999,381.608 L148.063999,413 L142.159999,413 L137.743999,397.208 C137.231997,395.415991 136.776001,393.720008 136.375999,392.12 C135.975997,390.519992 135.504002,388.808009 134.959999,386.984 L134.767999,386.984 C134.223997,388.808009 133.752001,390.519992 133.351999,392.12 C132.951997,393.720008 132.512002,395.415991 132.031999,397.208 L127.663999,413 L121.951999,413 Z M176.456,413 L176.456,381.608 L187.064,381.608 C188.696008,381.608 190.215993,381.767998 191.624,382.088 C193.032007,382.408002 194.247994,382.927996 195.272,383.648 C196.296005,384.368004 197.103997,385.319994 197.696,386.504 C198.288003,387.688006 198.584,389.159991 198.584,390.92 C198.584,393.320012 198.016005,395.255993 196.88,396.728 C195.743994,398.200007 194.232009,399.255997 192.344,399.896 L199.832,413 L193.592,413 L186.824,400.712 L182.024,400.712 L182.024,413 L176.456,413 Z M182.024,396.296 L186.488,396.296 C188.63201,396.296 190.271994,395.848004 191.408,394.952 C192.544005,394.055996 193.112,392.712009 193.112,390.92 C193.112,389.095991 192.544005,387.832004 191.408,387.128 C190.271994,386.423996 188.63201,386.072 186.488,386.072 L182.024,386.072 L182.024,396.296 Z M229.472,413 L229.472,381.608 L240.08,381.608 C241.712008,381.608 243.231993,381.767998 244.64,382.088 C246.048007,382.408002 247.263995,382.927996 248.288,383.648 C249.312005,384.368004 250.119997,385.319994 250.712,386.504 C251.304003,387.688006 251.6,389.159991 251.6,390.92 C251.6,393.320012 251.032006,395.255993 249.896,396.728 C248.759994,398.200007 247.248009,399.255997 245.36,399.896 L252.848,413 L246.608,413 L239.84,400.712 L235.04,400.712 L235.04,413 L229.472,413 Z M235.04,396.296 L239.504,396.296 C241.648011,396.296 243.287994,395.848004 244.424,394.952 C245.560006,394.055996 246.128,392.712009 246.128,390.92 C246.128,389.095991 245.560006,387.832004 244.424,387.128 C243.287994,386.423996 241.648011,386.072 239.504,386.072 L235.04,386.072 L235.04,396.296 Z M294.68,413.576 C292.63199,413.576 290.760009,413.200004 289.064,412.448 C287.367992,411.695996 285.912006,410.608007 284.696,409.184 C283.479994,407.759993 282.536004,406.04001 281.864,404.024 C281.191997,402.00799 280.856,399.720013 280.856,397.16 C280.856,394.631987 281.191997,392.36801 281.864,390.368 C282.536004,388.36799 283.479994,386.680007 284.696,385.304 C285.912006,383.927993 287.367992,382.872004 289.064,382.136 C290.760009,381.399996 292.63199,381.032 294.68,381.032 C296.728011,381.032 298.599992,381.399996 300.296,382.136 C301.992009,382.872004 303.455994,383.927993 304.688,385.304 C305.920007,386.680007 306.871997,388.36799 307.544,390.368 C308.216004,392.36801 308.552,394.631987 308.552,397.16 C308.552,399.720013 308.216004,402.00799 307.544,404.024 C306.871997,406.04001 305.920007,407.759993 304.688,409.184 C303.455994,410.608007 301.992009,411.695996 300.296,412.448 C298.599992,413.200004 296.728011,413.576 294.68,413.576 Z M294.68,408.728 C295.928007,408.728 297.047995,408.456003 298.04,407.912 C299.032005,407.367997 299.879997,406.592005 300.584,405.584 C301.288004,404.575995 301.831998,403.360007 302.216,401.936 C302.600002,400.511993 302.792,398.920009 302.792,397.16 C302.792,393.639982 302.064008,390.88001 300.608,388.88 C299.151993,386.87999 297.176013,385.88 294.68,385.88 C292.183988,385.88 290.208008,386.87999 288.752,388.88 C287.295993,390.88001 286.568,393.639982 286.568,397.16 C286.568,398.920009 286.759998,400.511993 287.144,401.936 C287.528002,403.360007 288.071997,404.575995 288.776,405.584 C289.480004,406.592005 290.327995,407.367997 291.32,407.912 C292.312005,408.456003 293.431994,408.728 294.68,408.728 Z M342.560001,413 L336.320001,381.608 L342.032001,381.608 L344.768001,397.448 C345.024002,399.144008 345.279999,400.823992 345.536001,402.488 L346.304001,407.48 L346.496001,407.48 C346.848003,405.815992 347.191999,404.144008 347.528001,402.464 C347.864002,400.783992 348.207999,399.112008 348.560001,397.448 L352.400001,381.608 L357.248001,381.608 L361.088001,397.448 C361.440003,399.080008 361.791999,400.735992 362.144001,402.416 C362.496003,404.096008 362.847999,405.783992 363.200001,407.48 L363.392001,407.48 C363.648002,405.783992 363.896,404.104008 364.136001,402.44 C364.376002,400.775992 364.623999,399.112008 364.880001,397.448 L367.616001,381.608 L372.944001,381.608 L366.944001,413 L360.032001,413 L356.144001,396.488 C355.887999,395.271994 355.640002,394.064006 355.400001,392.864 C355.16,391.663994 354.944002,390.456006 354.752001,389.24 L354.560001,389.24 C354.336,390.456006 354.104002,391.663994 353.864001,392.864 C353.624,394.064006 353.376002,395.271994 353.120001,396.488 L349.328001,413 L342.560001,413 Z" id="arrow" fill="#FFFFFF"></path>
            <g id="logo" transform="translate(122.000000, 83.000000)">
                <polygon id="path" fill="url(#linearGradient-1)" opacity="0.8" points="126.00238 194 168 218 126 242 84 218"></polygon>
                <polygon id="path" fill="url(#linearGradient-1)" points="126.00238 193.5 168 217.5 126 241.5"></polygon>
                <g id="path">
                    <use fill="black" fill-opacity="1" filter="url(#filter-4)" xlink:href="#path-3"></use>
                    <use fill="url(#linearGradient-2)" fill-rule="evenodd" xlink:href="#path-3"></use>
                </g>
                <g id="path" opacity="0.9" transform="translate(63.000000, 133.750000) scale(-1, 1) translate(-63.000000, -133.750000) ">
                    <use fill="black" fill-opacity="1" filter="url(#filter-7)" xlink:href="#path-6"></use>
                    <use fill="url(#linearGradient-5)" fill-rule="evenodd" xlink:href="#path-6"></use>
                </g>
            </g>
        </g>
    </g>
</svg>