<?xml version="1.0" encoding="UTF-8"?>
<svg width="398px" height="398px" viewBox="0 0 398 398" version="1.1" xmlns="http://www.w3.org/2000/svg" xmlns:xlink="http://www.w3.org/1999/xlink" style="background: #F2F6F9;">
    <!-- Generator: Sketch 45.2 (43514) - http://www.bohemiancoding.com/sketch -->
    <title>kategory-brand-font-light</title>
    <desc>Created with Sketch.</desc>
    <defs>
        <linearGradient x1="50%" y1="22.815668%" x2="50%" y2="73.7282539%" id="linearGradient-1">
            <stop stop-color="#F99406" offset="0%"></stop>
            <stop stop-color="#DB7190" offset="100%"></stop>
        </linearGradient>
        <linearGradient x1="50%" y1="0%" x2="50%" y2="100%" id="linearGradient-2">
            <stop stop-color="#00B5E2" offset="0%"></stop>
            <stop stop-color="#4D72E5" offset="100%"></stop>
        </linearGradient>
        <linearGradient x1="50%" y1="0%" x2="50%" y2="100%" id="linearGradient-3">
            <stop stop-color="#05CDFF" offset="0%"></stop>
            <stop stop-color="#6A8EFF" offset="100%"></stop>
        </linearGradient>
        <linearGradient x1="50%" y1="0%" x2="50%" y2="100%" id="linearGradient-4">
            <stop stop-color="#61A8FF" offset="0%"></stop>
            <stop stop-color="#4B74E5" offset="100%"></stop>
        </linearGradient>
    </defs>
    <g id="Page-1" stroke="none" stroke-width="1" fill="none" fill-rule="evenodd">
        <g id="kategory-brand-font-light">
            <g id="brand" transform="translate(95.000000, 61.000000)">
                <g id="icon">
                    <polygon id="path" fill="url(#linearGradient-1)" points="0.0048 0.9992 68.0048 40.2592 0.0048 79.5192"></polygon>
                    <polygon id="path" fill="url(#linearGradient-1)" points="204.0048 0.9992 136.0048 40.2592 204.0048 79.5192"></polygon>
                    <polygon id="path" fill="url(#linearGradient-2)" points="102.0048 20.628 0.0048 79.518 0.0048 158.038 102.0048 216.928"></polygon>
                    <polygon id="path" fill="url(#linearGradient-3)" points="102.0048 20.628 204.0048 79.518 204.0048 158.038 102.0048 216.928"></polygon>
                    <polygon id="path" fill="url(#linearGradient-4)" points="34.001 59.8722 33.997 59.8742 0.005 0.9982 0.005 79.4982 0.001 79.5022 0.001 158.0222 34.007 177.6682 85.001 148.1482"></polygon>
                    <polygon id="path" fill="url(#linearGradient-4)" points="204.0048 79.5148 204.0048 0.9988 170.0048 59.8888 171.4468 60.7228 170.0048 59.8888 119.0048 148.1628 170.0048 177.6668 204.0048 158.0388"></polygon>
                    <polygon id="path" fill="#000000" opacity="0.38841712" points="118.992401 148.159973 158.338786 184.406036 170.012329 177.670013"></polygon>
                    <polygon id="path" fill="#000000" opacity="0.38841712" transform="translate(59.509964, 166.283005) scale(-1, 1) translate(-59.509964, -166.283005) " points="34 148.159973 73.3463847 184.406036 85.019928 177.670013"></polygon>
                </g>
                <path d="M0.36,276 L0.36,248.28 L6.92,248.28 L6.92,276 L0.36,276 Z M14.68,248.28 L21.56,248.28 L13.72,260.72 L22.32,276 L14.76,276 L7.12,261.2 L14.68,248.28 Z M51.28,276 L44.24,276 L38.96,253.16 L33.64,276 L26.72,276 L35.04,248.28 L43,248.28 L51.28,276 Z M68.24,276 L61.68,276 L61.68,253.32 L53.88,253.32 L53.88,248.28 L76.32,248.28 L75.68,253.32 L68.24,253.32 L68.24,276 Z M89.28,259.64 L98.88,259.64 L98.88,264.2 L89.28,264.2 L89.28,271.28 L100.84,271.28 L100.84,276 L82.72,276 L82.72,248.28 L100.84,248.28 L100.16,252.96 L89.28,252.96 L89.28,259.64 Z M109.02,272.94 C106.953323,270.446654 105.92,266.82669 105.92,262.08 C105.92,259.013318 106.479994,256.386678 107.6,254.2 C108.720006,252.013322 110.25999,250.360006 112.22,249.24 C114.18001,248.119994 116.373321,247.56 118.8,247.56 C120.693343,247.56 122.339993,247.859997 123.74,248.46 C125.140007,249.060003 126.426661,249.906661 127.6,251 L124.16,254.56 C123.279996,253.786663 122.460004,253.226668 121.7,252.88 C120.939996,252.533332 120.080005,252.36 119.12,252.36 C117.11999,252.36 115.546672,253.153325 114.4,254.74 C113.253328,256.326675 112.68,258.78665 112.68,262.12 C112.68,265.693351 113.106662,268.213326 113.96,269.68 C114.813338,271.146674 116.186657,271.88 118.08,271.88 C119.33334,271.88 120.479995,271.600003 121.52,271.04 L121.52,264.68 L118.04,264.68 L117.4,260.12 L127.72,260.12 L127.72,273.88 C124.679985,275.746676 121.45335,276.68 118.04,276.68 C114.093314,276.68 111.086677,275.433346 109.02,272.94 Z M151.22,272.78 C149.313324,275.380013 146.573351,276.68 143,276.68 C139.399982,276.68 136.653343,275.393346 134.76,272.82 C132.866657,270.246654 131.92,266.680023 131.92,262.12 C131.92,257.613311 132.873324,254.060013 134.78,251.46 C136.686676,248.859987 139.426649,247.56 143,247.56 C146.600018,247.56 149.346657,248.846654 151.24,251.42 C153.133343,253.993346 154.08,257.559977 154.08,262.12 C154.08,266.626689 153.126676,270.179987 151.22,272.78 Z M146.34,254.68 C145.659997,253.133326 144.546674,252.36 143,252.36 C141.453326,252.36 140.340003,253.133326 139.66,254.68 C138.979997,256.226674 138.64,258.70665 138.64,262.12 C138.64,265.53335 138.979997,268.013326 139.66,269.56 C140.340003,271.106674 141.453326,271.88 143,271.88 C144.573341,271.88 145.69333,271.106674 146.36,269.56 C147.02667,268.013326 147.36,265.53335 147.36,262.12 C147.36,258.70665 147.020003,256.226674 146.34,254.68 Z M177.94,261.42 C176.939995,262.686673 175.600008,263.65333 173.92,264.32 L181.16,276 L173.72,276 L167.72,265.4 L165.88,265.4 L165.88,276 L159.32,276 L159.32,248.28 L168.04,248.28 C171.853352,248.28 174.706657,248.973326 176.6,250.36 C178.493343,251.746674 179.44,253.866652 179.44,256.72 C179.44,258.586676 178.940005,260.153327 177.94,261.42 Z M171.54,253.8 C170.779996,253.186664 169.613341,252.88 168.04,252.88 L165.88,252.88 L165.88,260.88 L168.32,260.88 C169.760007,260.88 170.846663,260.54667 171.58,259.88 C172.313337,259.21333 172.68,258.160007 172.68,256.72 C172.68,255.38666 172.300004,254.413336 171.54,253.8 Z M198.28,276 L191.72,276 L191.72,265.64 L182.68,248.28 L189.88,248.28 L195.12,260.2 L200.4,248.28 L207.32,248.28 L198.28,265.6 L198.28,276 Z" id="KΛTEGORY" fill="#223A66"></path>
            </g>
        </g>
    </g>
</svg>