<?xml version="1.0" encoding="UTF-8"?>
<svg width="398px" height="398px" viewBox="0 0 398 398" version="1.1" xmlns="http://www.w3.org/2000/svg" xmlns:xlink="http://www.w3.org/1999/xlink" style="background: #F2F6F9;">
    <!-- Generator: Sketch 45.2 (43514) - http://www.bohemiancoding.com/sketch -->
    <title>kategory-brand-light</title>
    <desc>Created with Sketch.</desc>
    <defs>
        <linearGradient x1="50%" y1="22.815668%" x2="50%" y2="73.7282539%" id="linearGradient-1">
            <stop stop-color="#F99406" offset="0%"></stop>
            <stop stop-color="#DB7190" offset="100%"></stop>
        </linearGradient>
        <linearGradient x1="50%" y1="0%" x2="50%" y2="100%" id="linearGradient-2">
            <stop stop-color="#00B5E2" offset="0%"></stop>
            <stop stop-color="#4D72E5" offset="100%"></stop>
        </linearGradient>
        <linearGradient x1="50%" y1="0%" x2="50%" y2="100%" id="linearGradient-3">
            <stop stop-color="#05CDFF" offset="0%"></stop>
            <stop stop-color="#6A8EFF" offset="100%"></stop>
        </linearGradient>
        <linearGradient x1="50%" y1="0%" x2="50%" y2="100%" id="linearGradient-4">
            <stop stop-color="#61A8FF" offset="0%"></stop>
            <stop stop-color="#4B74E5" offset="100%"></stop>
        </linearGradient>
    </defs>
    <g id="Page-1" stroke="none" stroke-width="1" fill="none" fill-rule="evenodd">
        <g id="kategory-brand-light">
            <g id="brand" transform="translate(75.000000, 70.000000)">
                <g id="icon">
                    <path d="M122.5,24.5 L122.5,257.5" id="Line" stroke="#6193FF" stroke-linecap="square"></path>
                    <polygon id="path" fill="url(#linearGradient-1)" points="0.00575533981 0.197198157 81.5397359 47.2368295 0.00575533981 94.2764608"></polygon>
                    <polygon id="path" fill="url(#linearGradient-1)" points="244.607697 0.197198157 163.073717 47.2368295 244.607697 94.2764608"></polygon>
                    <polygon id="path" fill="url(#linearGradient-2)" points="122.306726 23.715576 0.00575533981 94.275023 0.00575533981 188.354286 122.306726 258.913733"></polygon>
                    <polygon id="path" fill="url(#linearGradient-3)" points="122.306726 23.715576 244.607697 94.275023 244.607697 188.354286 122.306726 258.913733"></polygon>
                    <polygon id="path" fill="url(#linearGradient-4)" points="40.7681893 70.7362765 40.7633932 70.7386728 0.00599514563 0.196 0.00599514563 94.2512995 0.00119902913 94.2560922 0.00119902913 188.335355 40.7753835 211.874341 101.918675 176.504756"></polygon>
                    <polygon id="path" fill="url(#linearGradient-4)" points="244.607697 94.2711889 244.607697 0.196718894 203.840707 70.7561659 205.569707 71.7554286 203.840707 70.7561659 142.690221 176.522249 203.840707 211.872664 244.607697 188.355244"></polygon>
                    <polygon id="path" fill="#000000" opacity="0.38841712" points="142.675355 176.518862 189.852816 219.947325 203.849734 211.876514"></polygon>
                    <polygon id="path" fill="#000000" opacity="0.38841712" transform="translate(71.354180, 198.233093) scale(-1, 1) translate(-71.354180, -198.233093) " points="40.7669903 176.518862 87.9444515 219.947325 101.94137 211.876514"></polygon>
                </g>
            </g>
        </g>
    </g>
</svg>